<?xml version="1.0" encoding="UTF-8"?>
<!DOCTYPE svg PUBLIC "-//W3C//DTD SVG 1.1//EN" "http://www.w3.org/Graphics/SVG/1.1/DTD/svg11.dtd">
<!-- Creator: CorelDRAW X7 -->
<svg xmlns="http://www.w3.org/2000/svg" xml:space="preserve" width="52.0698mm" height="11.8532mm" version="1.1" style="shape-rendering:geometricPrecision; text-rendering:geometricPrecision; image-rendering:optimizeQuality; fill-rule:evenodd; clip-rule:evenodd"
viewBox="0 0 5207 1185"
 xmlns:xlink="http://www.w3.org/1999/xlink">
 <defs>
  <style type="text/css">
   <![CDATA[
    .fil2 {fill:#5F5D5D}
    .fil1 {fill:#E74C3C}
    .fil0 {fill:#E74C3C}
   ]]>
  </style>
 </defs>
 <g id="Layer_x0020_1">
  <metadata id="CorelCorpID_0Corel-Layer"/>
  <g id="_2186318400800">
   <path class="fil0" d="M653 294c33,17 64,38 93,64 182,161 199,439 38,621 -162,182 -440,199 -622,37 -177,-157 -197,-425 -49,-607 2,-3 4,-5 6,-7l6 -7 269 -300c40,-45 110,-50 155,-9l0 0c61,53 59,129 7,187 -24,28 -203,226 -246,276 -2,2 -4,4 -6,5 -73,83 -65,210 18,283 82,73 209,65 282,-17 73,-83 66,-209 -17,-283 -23,-20 -50,-35 -78,-42 19,-22 88,-99 119,-137 19,-22 24,-36 25,-64z"/>
   <path class="fil1" d="M1295 999c-34,0 -67,-4 -98,-12 -32,-8 -59,-21 -81,-37 -22,-17 -38,-38 -48,-63 -9,-26 -9,-56 1,-91 11,12 25,23 42,34 18,10 36,19 55,26 20,7 39,13 59,17 20,4 39,6 56,5 31,-1 56,-6 76,-15 19,-9 35,-21 46,-35 11,-14 19,-29 23,-47 4,-18 6,-36 6,-55 -26,25 -54,44 -84,55 -30,11 -60,16 -91,15 -30,-1 -60,-8 -89,-21 -28,-13 -54,-32 -76,-55 -22,-24 -39,-53 -53,-87 -13,-34 -19,-72 -19,-113 0,-41 7,-78 21,-111 14,-33 33,-61 57,-84 24,-23 52,-41 83,-53 30,-12 62,-18 96,-17 32,2 58,9 78,22 19,13 34,29 43,46 9,17 14,35 14,53 0,19 -2,33 -9,44 -6,-8 -13,-15 -21,-21 -9,-6 -18,-10 -28,-14 -10,-3 -20,-5 -30,-7 -11,-1 -21,-2 -30,-2 -31,0 -57,8 -78,23 -21,15 -37,33 -48,55 -11,22 -17,46 -17,72 0,25 5,49 15,71 11,22 27,41 48,56 21,14 48,22 80,22 27,0 49,-6 67,-16 17,-11 31,-26 42,-44 10,-17 18,-38 22,-60 5,-23 7,-46 7,-70l0 -216 132 0 0 467c0,40 -6,76 -17,109 -12,32 -29,60 -52,83 -22,23 -50,40 -84,53 -33,12 -72,18 -116,18z"/>
   <path class="fil1" d="M1610 264l88 0 0 52c9,-19 21,-33 34,-44 14,-11 30,-17 46,-18 22,-1 40,3 54,13 13,9 23,21 29,35 5,14 6,28 4,42 -3,15 -10,26 -21,34 -5,-13 -14,-21 -27,-25 -14,-4 -28,-3 -43,1 -14,5 -27,15 -39,28 -12,14 -19,32 -21,54 -1,12 -2,25 -2,37 0,12 0,24 0,34l0 165 -102 0 0 -408z"/>
   <path class="fil1" d="M2183 628c-20,19 -42,33 -65,42 -23,9 -47,13 -70,12 -24,-1 -47,-6 -69,-16 -22,-10 -42,-24 -59,-43 -17,-18 -30,-41 -41,-67 -10,-25 -15,-55 -15,-88 0,-31 6,-60 17,-87 11,-27 25,-50 44,-69 19,-18 40,-33 64,-43 23,-10 48,-15 74,-14 25,1 45,7 60,17 15,10 27,22 34,36 7,13 10,27 11,41 0,14 -2,25 -7,33 -9,-13 -21,-22 -38,-27 -16,-4 -32,-6 -47,-6 -24,0 -44,5 -60,17 -17,12 -29,27 -37,45 -9,18 -13,37 -13,58 0,21 3,40 12,58 8,18 20,32 36,44 17,12 38,18 62,18 21,0 38,-5 52,-14 14,-10 25,-22 33,-37 8,-15 14,-31 17,-50 3,-19 5,-37 5,-55l0 -168 102 0 0 407 -102 0 0 -44z"/>
   <path class="fil1" d="M2430 122l0 199c5,-9 11,-17 19,-23 9,-7 18,-13 28,-17 10,-5 21,-8 32,-11 10,-3 20,-4 30,-5 19,-1 38,2 57,8 19,6 36,18 52,34 23,24 35,59 35,104l0 261 -99 0c0,-8 1,-20 1,-35 0,-15 0,-31 0,-48 0,-18 0,-36 0,-55 0,-19 0,-38 -1,-55 0,-17 -1,-32 -2,-45 -1,-13 -2,-23 -4,-29 -4,-16 -12,-28 -23,-36 -11,-8 -23,-13 -37,-13 -17,0 -31,5 -41,15 -9,9 -14,21 -14,37 -6,-2 -12,-6 -19,-12 -6,-7 -11,-13 -14,-21l0 297 -99 0 0 -470c0,-25 9,-44 27,-59 18,-14 42,-21 72,-21z"/>
   <path class="fil1" d="M3032 628c-20,19 -41,33 -65,42 -23,9 -46,13 -70,12 -23,-1 -46,-6 -69,-16 -22,-10 -41,-24 -59,-43 -17,-18 -30,-41 -40,-67 -11,-25 -16,-55 -16,-88 0,-31 6,-60 17,-87 11,-27 26,-50 44,-69 19,-18 40,-33 64,-43 24,-10 48,-15 74,-14 25,1 45,7 61,17 15,10 26,22 33,36 7,13 11,27 11,41 0,14 -2,25 -7,33 -9,-13 -21,-22 -37,-27 -17,-4 -32,-6 -48,-6 -24,0 -44,5 -60,17 -16,12 -29,27 -37,45 -8,18 -13,37 -13,58 0,21 4,40 12,58 8,18 20,32 37,44 16,12 37,18 61,18 21,0 39,-5 52,-14 14,-10 25,-22 33,-37 8,-15 14,-31 17,-50 4,-19 5,-37 5,-55l0 -168 102 0 0 407 -102 0 0 -44z"/>
   <path class="fil2" d="M3505 392c-4,-9 -9,-17 -17,-23 -7,-6 -14,-10 -23,-13 -8,-3 -16,-5 -24,-5 -8,0 -15,1 -20,3 -9,3 -15,8 -18,15 -2,8 -1,15 5,21 4,5 11,10 21,15 10,5 21,10 33,16 13,6 25,13 38,20 13,7 25,16 36,26 10,10 19,22 26,36 7,14 10,30 10,49 0,22 -4,41 -14,58 -10,16 -23,30 -39,40 -16,10 -34,17 -54,21 -20,4 -40,4 -61,1 -21,-3 -41,-10 -60,-21 -19,-11 -36,-26 -50,-45l61 -65c13,15 26,26 40,32 14,7 27,11 39,11 12,1 22,-1 30,-5 8,-4 13,-10 15,-17 2,-8 0,-16 -7,-25 -6,-9 -17,-18 -35,-26 -16,-8 -32,-17 -47,-25 -16,-9 -30,-19 -42,-29 -12,-11 -21,-23 -29,-36 -7,-14 -11,-29 -11,-47 0,-18 4,-34 12,-49 7,-14 18,-26 30,-36 13,-9 27,-16 44,-21 16,-5 33,-7 50,-6 30,1 52,8 68,19 15,12 25,25 29,39 4,15 2,29 -4,43 -6,13 -17,23 -32,29zm127 -182c0,-14 2,-26 8,-36 5,-10 12,-18 21,-24 9,-6 19,-11 31,-14 12,-2 24,-4 36,-4l0 142 88 0c0,10 0,20 -2,30 -2,10 -5,18 -11,26 -5,8 -12,15 -20,19 -9,5 -20,8 -34,8l-21 0 0 216c0,8 3,14 9,17 6,3 13,5 21,4 8,0 17,-2 25,-5 8,-4 14,-9 17,-15 7,17 7,32 2,45 -6,13 -16,23 -28,31 -12,8 -27,13 -43,15 -17,3 -33,1 -47,-3 -15,-5 -27,-14 -37,-26 -10,-13 -15,-30 -15,-51l0 -228 -49 0 0 -83 49 0 0 -64zm302 62l0 189c0,9 1,19 1,30 0,10 1,20 3,30 2,10 5,19 9,28 4,9 11,16 19,22 6,4 13,7 20,9 7,2 15,3 22,3 8,0 15,-1 23,-3 7,-2 13,-5 19,-9 9,-5 16,-12 20,-21 4,-8 7,-17 9,-27 2,-10 3,-20 3,-30 0,-10 0,-20 0,-29l0 -114c-1,-27 8,-47 26,-61 19,-13 43,-20 72,-19l0 168c1,35 0,64 -3,87 -3,23 -7,41 -13,55 -15,34 -35,58 -62,73 -27,15 -59,22 -95,22 -39,0 -73,-9 -101,-26 -28,-17 -48,-45 -60,-83 -4,-12 -7,-28 -9,-48 -2,-20 -3,-42 -3,-66l0 -180 100 0zm567 352c-19,18 -40,31 -62,40 -22,8 -44,12 -67,11 -22,0 -44,-6 -65,-15 -20,-9 -39,-23 -55,-40 -16,-18 -29,-39 -38,-63 -10,-25 -15,-53 -15,-84 0,-30 5,-57 16,-82 10,-25 24,-46 42,-65 17,-18 37,-31 60,-41 22,-10 45,-14 70,-13 25,1 45,6 60,16 14,10 25,21 31,33 6,13 9,26 9,39 0,13 -2,24 -7,32 -9,-12 -21,-21 -36,-25 -16,-4 -30,-7 -44,-7 -23,0 -42,6 -58,17 -15,11 -27,25 -35,42 -8,17 -12,35 -12,55 0,19 4,38 12,54 7,17 19,31 34,42 15,12 35,17 58,17 20,0 36,-4 49,-13 13,-9 24,-21 31,-35 8,-14 13,-30 17,-48 3,-17 5,-35 5,-52l0 -306c30,1 53,9 70,24 17,16 26,33 26,54l0 455 -96 0 0 -42zm144 -273c1,-15 5,-28 10,-38 5,-10 12,-18 21,-24 8,-6 19,-11 30,-14 11,-2 24,-4 38,-4l0 396 -99 0 0 -316zm50 -243c17,0 32,7 44,20 13,12 19,27 19,45 0,17 -6,33 -18,45 -7,8 -15,12 -25,15 -9,3 -19,6 -28,9 -10,2 -18,6 -26,10 -8,3 -13,10 -16,18 -3,-8 -6,-18 -8,-31 -3,-13 -5,-26 -6,-40 -1,-13 0,-27 2,-40 3,-13 8,-24 17,-32 12,-12 27,-19 45,-19zm288 154c40,0 76,10 107,29 32,19 56,44 74,74 18,30 27,63 29,100 1,37 -8,73 -28,108 -17,29 -39,52 -66,69 -27,17 -55,28 -86,33 -31,4 -61,1 -92,-8 -31,-9 -58,-26 -83,-51 -27,-28 -46,-60 -55,-97 -9,-36 -8,-73 2,-110 5,-14 13,-27 23,-36 10,-10 22,-17 35,-22 14,-4 27,-6 42,-6 14,1 27,4 39,9 13,5 23,13 31,23 9,10 14,22 15,36 -7,-6 -17,-8 -27,-9 -11,0 -21,2 -31,7 -10,5 -19,12 -25,22 -7,10 -11,23 -11,37 0,26 6,47 16,64 11,17 24,29 40,38 16,8 34,12 52,12 19,0 36,-4 52,-13 16,-9 30,-21 40,-38 11,-17 16,-39 16,-64 0,-20 -3,-38 -10,-53 -7,-15 -17,-28 -29,-38 -12,-10 -26,-16 -42,-20 -15,-4 -32,-4 -50,-1 -8,-9 -17,-16 -28,-21 -11,-6 -23,-9 -35,-11 -13,-2 -26,-2 -38,1 -13,2 -25,6 -36,13 20,-24 44,-43 71,-57 27,-13 56,-20 88,-20z"/>
   <path class="fil2" d="M1796 741l-20 0 0 113 -1 0c-13,-20 -36,-28 -55,-28 -45,0 -77,32 -77,75 0,44 32,76 77,76 19,0 42,-8 55,-28l1 0 0 24 20 0 0 -232zm-131 160c0,-32 21,-57 55,-57 33,0 57,25 57,57 0,33 -24,58 -57,58 -34,0 -55,-25 -55,-58zm200 -71l-20 0 0 143 20 0 0 -143zm5 -56c0,-8 -7,-14 -15,-14 -7,0 -14,6 -14,14 0,9 7,15 14,15 8,0 15,-6 15,-15zm40 244c19,20 41,29 69,29 65,0 77,-44 77,-75l0 -142 -20 0 0 24 -1 0c-16,-23 -38,-28 -55,-28 -42,0 -73,32 -73,74 0,42 33,73 75,73 21,0 41,-7 53,-27l1 0 0 26c0,31 -15,57 -56,57 -23,0 -43,-11 -55,-27l-15 16zm19 -118c0,-31 23,-56 53,-56 34,0 55,25 55,56 1,33 -25,55 -55,55 -30,0 -53,-25 -53,-55zm198 -70l-21 0 0 143 21 0 0 -143zm4 -56c0,-8 -7,-14 -14,-14 -8,0 -15,6 -15,14 0,9 7,15 15,15 7,0 14,-6 14,-15zm119 56l-42 0 0 -41 -20 0 0 41 -30 0 0 18 30 0 0 91c0,31 20,38 36,38 10,0 20,-2 27,-5l-1 -19c-6,3 -14,6 -21,6 -12,0 -21,-5 -21,-26l0 -85 42 0 0 -18zm109 55c-34,0 -89,3 -89,50 0,28 24,42 49,42 23,0 39,-8 51,-27l1 0c0,8 0,16 2,23l19 0c-1,-7 -2,-21 -2,-32l0 -64c0,-35 -24,-51 -53,-51 -27,0 -47,7 -61,21l13 14c12,-11 27,-17 44,-17 25,0 37,13 37,37l0 4 -11 0zm11 17l0 10c0,26 -15,47 -44,47 -16,0 -34,-8 -34,-27 0,-29 46,-30 67,-30l11 0zm92 -161l-21 0 0 232 21 0 0 -232zm216 144c-35,0 -90,3 -90,50 0,28 24,42 50,42 23,0 39,-8 50,-27l1 0c0,8 1,16 2,23l20 0c-2,-7 -3,-21 -3,-32l0 -64c0,-35 -24,-51 -52,-51 -27,0 -48,7 -61,21l12 14c12,-11 27,-17 44,-17 25,0 37,13 37,37l0 4 -10 0zm10 17l0 10c0,26 -14,47 -44,47 -16,0 -33,-8 -33,-27 0,-29 46,-30 66,-30l11 0zm210 -161l-20 0 0 113 0 0c-14,-20 -37,-28 -56,-28 -45,0 -77,32 -77,75 0,44 32,76 77,76 19,0 42,-8 56,-28l0 0 0 24 20 0 0 -232zm-131 160c0,-32 21,-57 55,-57 33,0 57,25 57,57 0,33 -24,58 -57,58 -34,0 -55,-25 -55,-58zm297 -71l-23 0 -46 121 0 0 -46 -121 -24 0 58 143 23 0 58 -143zm160 77l0 -9c0,-40 -25,-72 -68,-72 -41,0 -73,32 -73,75 0,44 32,76 75,76 23,0 44,-9 61,-30l-15 -13c-8,13 -25,25 -46,25 -29,0 -51,-23 -53,-52l119 0zm-119 -17c0,-23 24,-46 51,-46 29,0 46,19 46,46l-97 0zm158 83l21 0 0 -81c0,-19 14,-46 44,-46 6,0 9,1 12,2l4 -20c-4,-1 -9,-2 -15,-2 -25,0 -40,15 -46,30l-1 0 0 -26 -20 0c1,20 1,31 1,44l0 99zm175 -143l-42 0 0 -41 -20 0 0 41 -31 0 0 18 31 0 0 91c0,31 20,38 35,38 11,0 20,-2 28,-5l-1 -19c-6,3 -14,6 -21,6 -13,0 -21,-5 -21,-26l0 -85 42 0 0 -18zm52 0l-20 0 0 143 20 0 0 -143zm5 -56c0,-8 -8,-14 -15,-14 -7,0 -15,6 -15,14 0,9 8,15 15,15 7,0 15,-6 15,-15zm138 78c-9,-19 -28,-26 -48,-26 -27,0 -53,13 -53,43 0,27 27,35 37,38l20 5c15,3 27,8 27,23 0,16 -17,24 -34,24 -17,0 -29,-9 -38,-22l-17 12c13,20 33,28 55,28 28,0 56,-13 56,-44 0,-21 -15,-35 -35,-40l-21 -4c-18,-5 -28,-10 -28,-23 0,-16 16,-22 30,-22 15,0 25,8 31,20l18 -12zm62 -22l-21 0 0 143 21 0 0 -143zm4 -56c0,-8 -7,-14 -15,-14 -7,0 -14,6 -14,14 0,9 7,15 14,15 8,0 15,-6 15,-15zm43 56c0,10 1,24 1,31l0 112 21 0 0 -73c0,-53 39,-56 43,-56 30,0 39,18 39,50l0 79 20 0 0 -91c0,-36 -17,-56 -54,-56 -19,0 -39,11 -48,27l0 0c0,-8 0,-16 -1,-23l-21 0zm168 188c18,20 41,29 69,29 65,0 77,-44 77,-75l0 -142 -20 0 0 24 -1 0c-16,-23 -38,-28 -55,-28 -43,0 -73,32 -73,74 0,42 33,73 75,73 20,0 40,-7 53,-27l1 0 0 26c0,31 -15,57 -56,57 -23,0 -43,-11 -55,-27l-15 16zm19 -118c0,-31 23,-56 53,-56 34,0 55,25 55,56 1,33 -25,55 -55,55 -30,0 -53,-25 -53,-55zm340 -15c-34,0 -89,3 -89,50 0,28 24,42 49,42 23,0 39,-8 51,-27l0 0c0,8 1,16 2,23l20 0c-1,-7 -3,-21 -3,-32l0 -64c0,-35 -24,-51 -52,-51 -27,0 -48,7 -61,21l12 14c13,-11 27,-17 44,-17 25,0 37,13 37,37l0 4 -10 0zm10 17l0 10c0,26 -14,47 -44,47 -16,0 -33,-8 -33,-27 0,-29 46,-30 67,-30l10 0zm63 116c19,20 41,29 69,29 65,0 77,-44 77,-75l0 -142 -20 0 0 24 0 0c-17,-23 -39,-28 -56,-28 -42,0 -73,32 -73,74 0,42 33,73 75,73 21,0 41,-7 54,-27l0 0 0 26c0,31 -15,57 -56,57 -23,0 -43,-11 -55,-27l-15 16zm19 -118c0,-31 23,-56 53,-56 34,0 55,25 55,56 1,33 -25,55 -55,55 -30,0 -53,-25 -53,-55zm307 7l0 -9c0,-40 -25,-72 -69,-72 -41,0 -72,32 -72,75 0,44 31,76 74,76 23,0 45,-9 62,-30l-16 -13c-8,13 -25,25 -46,25 -29,0 -51,-23 -53,-52l120 0zm-119 -17c0,-23 24,-46 50,-46 29,0 47,19 47,46l-97 0zm154 -60c1,10 2,24 2,31l0 112 20 0 0 -73c0,-53 39,-56 43,-56 31,0 39,18 39,50l0 79 21 0 0 -91c0,-36 -18,-56 -54,-56 -19,0 -40,11 -49,27l0 0c0,-8 0,-16 -1,-23l-21 0zm294 21c-15,-17 -34,-25 -53,-25 -47,-1 -76,32 -76,75 0,44 29,77 76,76 19,0 38,-8 53,-25l-17 -13c-7,11 -20,20 -36,20 -33,0 -54,-25 -54,-58 0,-32 21,-57 54,-57 16,0 29,9 36,19l17 -12zm35 -21l-26 0 59 145 -10 28c-7,16 -14,26 -28,26 -6,0 -11,-1 -15,-4l-3 20c7,2 13,2 19,2 25,0 37,-14 45,-36l72 -181 -24 0 -44 118 -45 -118z"/>
  </g>
 </g>
</svg>
